<?xml version="1.0" encoding="utf-8"?>
<!-- Generator: Adobe Illustrator 26.3.0, SVG Export Plug-In . SVG Version: 6.00 Build 0)  -->
<svg version="1.1" id="Calque_2_00000124142381845102954110000011760828090950234286_"
	 xmlns="http://www.w3.org/2000/svg" xmlns:xlink="http://www.w3.org/1999/xlink" x="0px" y="0px" viewBox="0 0 191.1 635.2"
	 style="enable-background:new 0 0 191.1 635.2;" xml:space="preserve">
<style type="text/css">
	.st0{fill:#00A8C1;}
</style>
<g id="Layer_1">
	<g>
		
			<image style="overflow:visible;opacity:0.8;enable-background:new    ;" width="192" height="636" xlink:href="2D02133B.png"  transform="matrix(1 0 0 1 -2.000000e-02 -0.53)">
		</image>
		<g>
			<path class="st0" d="M138.6,80.7L67.1,20.6c-0.9-0.8-2.2-0.8-3.2,0c-0.6,0.5-0.9,1.3-0.9,2v222c0,4.7-1.9,9.2-5.2,12.5
				l-26.1,26.1c-4,4-6.2,9.4-6.2,15.1V545c0,6.1,2.6,12,7.3,16l26.7,23.4c3.9,3.4,8.9,5.3,14.1,5.3h23.4c5.7,0,11.3,2,15.7,5.7
				l22.8,19.2c0.5,0.4,1,0.6,1.6,0.6c0.5,0,1-0.2,1.5-0.5c0.7-0.5,1-1.3,1-2.2v-530C139.5,81.9,139.1,81.2,138.6,80.7z M134.5,607.4
				l-58.4-49.2c-5.1-4.3-8-10.6-8-17.2V27.8l66.5,55.9L134.5,607.4L134.5,607.4z"/>
		</g>
	</g>
</g>
</svg>
