<?xml version="1.0" encoding="utf-8"?>
<!-- Generator: Adobe Illustrator 26.3.0, SVG Export Plug-In . SVG Version: 6.00 Build 0)  -->
<svg version="1.1" id="Calque_2_00000010999198932767299400000013988118823051871402_"
	 xmlns="http://www.w3.org/2000/svg" xmlns:xlink="http://www.w3.org/1999/xlink" x="0px" y="0px" viewBox="0 0 191.1 635.2"
	 style="enable-background:new 0 0 191.1 635.2;" xml:space="preserve">
<style type="text/css">
	.st0{fill:#00A8C1;}
	.st1{fill:url(#SVGID_1_);}
	.st2{fill:url(#SVGID_00000111190413927325371970000014555278978256148394_);}
	.st3{fill:url(#SVGID_00000089547016572010445160000016958025659784597158_);}
	.st4{fill:url(#SVGID_00000180324734334677854830000000021389550352612529_);}
	.st5{fill:url(#SVGID_00000041287854469169163310000010431804402026301367_);}
	.st6{fill:url(#SVGID_00000098909864061902353670000014971139509630186380_);}
	.st7{fill:url(#SVGID_00000095297848679591299540000009840249484735913615_);}
	.st8{fill:url(#SVGID_00000178177190445152236060000013002760025461947303_);}
	.st9{fill:url(#SVGID_00000063624490930078637590000013828160797705791144_);}
	.st10{fill:url(#SVGID_00000052793587947127570700000003785134708276308415_);}
</style>
<g id="Layer_1">
	<g>
		<g>
			<path class="st0" d="M138.6,80.7L67.1,20.6c-0.9-0.8-2.2-0.8-3.2,0c-0.6,0.5-0.9,1.3-0.9,2v222c0,4.7-1.9,9.2-5.2,12.5
				l-26.1,26.1c-4,4-6.2,9.4-6.2,15.1V545c0,6.1,2.6,12,7.3,16l26.7,23.4c3.9,3.4,8.9,5.3,14.1,5.3h23.4c5.7,0,11.3,2,15.7,5.7
				l22.8,19.2c0.5,0.4,1,0.6,1.6,0.6c0.5,0,1-0.2,1.5-0.5c0.7-0.5,1-1.3,1-2.2v-530C139.5,81.9,139.1,81.2,138.6,80.7z M134.5,607.4
				l-58.4-49.2c-5.1-4.3-8-10.6-8-17.2V27.8l66.5,55.9L134.5,607.4L134.5,607.4z"/>
			<g>
				<g>
					
						<linearGradient id="SVGID_1_" gradientUnits="userSpaceOnUse" x1="101.245" y1="58.8737" x2="101.245" y2="564.5237" gradientTransform="matrix(1 0 0 -1 0 636.3937)">
						<stop  offset="0" style="stop-color:#00A8C1"/>
						<stop  offset="1" style="stop-color:#00A8C1"/>
					</linearGradient>
					<path class="st1" d="M114.8,332.8c-0.6,0-1.1-0.2-1.6-0.6L78,302.6v44.2c0.6,0,1.1,0.2,1.6,0.6l35.1,29.5l9.8-9.8v-42.9
						l-7.9,7.9C116.1,332.6,115.5,332.8,114.8,332.8L114.8,332.8z"/>
				</g>
				<g>
					
						<linearGradient id="SVGID_00000177445704919498004390000017038567222467172510_" gradientUnits="userSpaceOnUse" x1="101.245" y1="58.8737" x2="101.245" y2="564.5237" gradientTransform="matrix(1 0 0 -1 0 636.3937)">
						<stop  offset="0" style="stop-color:#00A8C1"/>
						<stop  offset="1" style="stop-color:#00A8C1"/>
					</linearGradient>
					<path style="fill:url(#SVGID_00000177445704919498004390000017038567222467172510_);" d="M114.8,442.8c-0.6,0-1.1-0.2-1.6-0.6
						L78,412.6v44.2c0.6,0,1.1,0.2,1.6,0.6l35.1,29.5l9.8-9.8v-42.9l-7.9,7.9C116.1,442.6,115.5,442.8,114.8,442.8L114.8,442.8z"/>
				</g>
				<g>
					
						<linearGradient id="SVGID_00000074443894550291586490000013305070795840693907_" gradientUnits="userSpaceOnUse" x1="101.245" y1="58.8737" x2="101.245" y2="564.5237" gradientTransform="matrix(1 0 0 -1 0 636.3937)">
						<stop  offset="0" style="stop-color:#00A8C1"/>
						<stop  offset="1" style="stop-color:#00A8C1"/>
					</linearGradient>
					<path style="fill:url(#SVGID_00000074443894550291586490000013305070795840693907_);" d="M114.8,232.8c-0.6,0-1.1-0.2-1.6-0.6
						L78,202.6v44.2c0.6,0,1.1,0.2,1.6,0.6l35.1,29.5l9.8-9.8v-42.9l-7.9,7.9C116.1,232.6,115.5,232.8,114.8,232.8L114.8,232.8z"/>
				</g>
				<g>
					
						<linearGradient id="SVGID_00000022559850779725165760000001412026090936412585_" gradientUnits="userSpaceOnUse" x1="101.245" y1="58.8737" x2="101.245" y2="564.5237" gradientTransform="matrix(1 0 0 -1 0 636.3937)">
						<stop  offset="0" style="stop-color:#00A8C1"/>
						<stop  offset="1" style="stop-color:#00A8C1"/>
					</linearGradient>
					<path style="fill:url(#SVGID_00000022559850779725165760000001412026090936412585_);" d="M114.8,382.8c-0.6,0-1.1-0.2-1.6-0.6
						L78,352.6v54.2c0.6,0,1.1,0.2,1.6,0.6l35.1,29.5l9.8-9.8v-52.9l-7.9,7.9C116.1,382.6,115.5,382.8,114.8,382.8L114.8,382.8z"/>
				</g>
				<g>
					
						<linearGradient id="SVGID_00000183226019884849612060000005993936322944342184_" gradientUnits="userSpaceOnUse" x1="101.245" y1="58.8737" x2="101.245" y2="564.5237" gradientTransform="matrix(1 0 0 -1 0 636.3937)">
						<stop  offset="0" style="stop-color:#00A8C1"/>
						<stop  offset="1" style="stop-color:#00A8C1"/>
					</linearGradient>
					<path style="fill:url(#SVGID_00000183226019884849612060000005993936322944342184_);" d="M114.8,282.8c-0.6,0-1.1-0.2-1.6-0.6
						L78,252.6v44.2c0.6,0,1.1,0.2,1.6,0.6l35.1,29.5l9.8-9.8v-42.9l-7.9,7.9C116.1,282.6,115.5,282.8,114.8,282.8L114.8,282.8z"/>
				</g>
				<g>
					
						<linearGradient id="SVGID_00000065043872058588090570000005703317965589219000_" gradientUnits="userSpaceOnUse" x1="101.25" y1="58.8737" x2="101.25" y2="564.5237" gradientTransform="matrix(1 0 0 -1 0 636.3937)">
						<stop  offset="0" style="stop-color:#00A8C1"/>
						<stop  offset="1" style="stop-color:#00A8C1"/>
					</linearGradient>
					<path style="fill:url(#SVGID_00000065043872058588090570000005703317965589219000_);" d="M116.6,542.1
						c-0.5,0.5-1.1,0.7-1.8,0.7c-0.6,0-1.1-0.2-1.6-0.6L78,512.6V541c0,3.7,1.6,7.2,4.5,9.6l42,35.3v-51.7L116.6,542.1L116.6,542.1z
						"/>
				</g>
				<g>
					
						<linearGradient id="SVGID_00000159436371225673830840000010149720478357558706_" gradientUnits="userSpaceOnUse" x1="101.24" y1="58.8737" x2="101.24" y2="564.5237" gradientTransform="matrix(1 0 0 -1 0 636.3937)">
						<stop  offset="0" style="stop-color:#00A8C1"/>
						<stop  offset="1" style="stop-color:#00A8C1"/>
					</linearGradient>
					<path style="fill:url(#SVGID_00000159436371225673830840000010149720478357558706_);" d="M79.6,97.4l35.1,29.5l9.8-9.8V88.4
						L78,49.3v47.5C78.6,96.8,79.2,97,79.6,97.4L79.6,97.4z"/>
				</g>
				<g>
					
						<linearGradient id="SVGID_00000009590979544182845700000000027594459362882221_" gradientUnits="userSpaceOnUse" x1="101.245" y1="58.8737" x2="101.245" y2="564.5237" gradientTransform="matrix(1 0 0 -1 0 636.3937)">
						<stop  offset="0" style="stop-color:#00A8C1"/>
						<stop  offset="1" style="stop-color:#00A8C1"/>
					</linearGradient>
					<path style="fill:url(#SVGID_00000009590979544182845700000000027594459362882221_);" d="M114.8,132.8c-0.6,0-1.1-0.2-1.6-0.6
						L78,102.6v44.2c0.6,0,1.1,0.2,1.6,0.6l35.1,29.5l9.8-9.8v-42.9l-7.9,7.9C116.1,132.6,115.5,132.8,114.8,132.8L114.8,132.8z"/>
				</g>
				<g>
					
						<linearGradient id="SVGID_00000015322552111188557850000010493961752133072547_" gradientUnits="userSpaceOnUse" x1="101.24" y1="58.8737" x2="101.24" y2="564.5237" gradientTransform="matrix(1 0 0 -1 0 636.3937)">
						<stop  offset="0" style="stop-color:#00A8C1"/>
						<stop  offset="1" style="stop-color:#00A8C1"/>
					</linearGradient>
					<path style="fill:url(#SVGID_00000015322552111188557850000010493961752133072547_);" d="M114.7,536.9l9.8-9.8v-42.9l-7.9,7.9
						c-0.5,0.5-1.1,0.7-1.8,0.7c-0.6,0-1.1-0.2-1.6-0.6L78,462.6v44.2c0.6,0,1.1,0.2,1.6,0.6L114.7,536.9L114.7,536.9z"/>
				</g>
				<g>
					
						<linearGradient id="SVGID_00000179621890103027941790000015984658496021256867_" gradientUnits="userSpaceOnUse" x1="101.245" y1="58.8737" x2="101.245" y2="564.5237" gradientTransform="matrix(1 0 0 -1 0 636.3937)">
						<stop  offset="0" style="stop-color:#00A8C1"/>
						<stop  offset="1" style="stop-color:#00A8C1"/>
					</linearGradient>
					<path style="fill:url(#SVGID_00000179621890103027941790000015984658496021256867_);" d="M114.8,182.8c-0.6,0-1.1-0.2-1.6-0.6
						L78,152.6v44.2c0.6,0,1.1,0.2,1.6,0.6l35.1,29.5l9.8-9.8v-42.9l-7.9,7.9C116.1,182.6,115.5,182.8,114.8,182.8L114.8,182.8z"/>
				</g>
			</g>
		</g>
	</g>
</g>
</svg>
