<?xml version="1.0" encoding="utf-8"?>
<!-- Generator: Adobe Illustrator 26.3.0, SVG Export Plug-In . SVG Version: 6.00 Build 0)  -->
<svg version="1.1" id="Calque_2_00000000925976268345895820000008069729919923737738_"
	 xmlns="http://www.w3.org/2000/svg" xmlns:xlink="http://www.w3.org/1999/xlink" x="0px" y="0px" viewBox="0 0 191.1 635.2"
	 style="enable-background:new 0 0 191.1 635.2;" xml:space="preserve">
<style type="text/css">
	.st0{fill:#00A8C1;}
	.st1{fill:url(#SVGID_1_);}
	.st2{fill:url(#SVGID_00000118394207014443796860000000142898036519760050_);}
	.st3{fill:url(#SVGID_00000168800190680860895600000011743571613272669362_);}
	.st4{fill:url(#SVGID_00000134208919239439572860000008667421728568315797_);}
	.st5{fill:url(#SVGID_00000009570977711010605090000008225728260314620053_);}
	.st6{fill:url(#SVGID_00000008126247837965575070000000033154298204558217_);}
</style>
<g id="Layer_1">
	<g>
		<g>
			<path class="st0" d="M138.6,80.7L67.1,20.6c-0.9-0.8-2.2-0.8-3.2,0c-0.6,0.5-0.9,1.3-0.9,2v222c0,4.7-1.9,9.2-5.2,12.5
				l-26.1,26.1c-4,4-6.2,9.4-6.2,15.1V545c0,6.1,2.6,12,7.3,16l26.7,23.4c3.9,3.4,8.9,5.3,14.1,5.3h23.4c5.7,0,11.3,2,15.7,5.7
				l22.8,19.2c0.5,0.4,1,0.6,1.6,0.6c0.5,0,1-0.2,1.5-0.5c0.7-0.5,1-1.3,1-2.2v-530C139.5,81.9,139.1,81.2,138.6,80.7z M134.5,607.4
				l-58.4-49.2c-5.1-4.3-8-10.6-8-17.2V27.8l66.5,55.9L134.5,607.4L134.5,607.4z"/>
			<g>
				<g>
					
						<linearGradient id="SVGID_1_" gradientUnits="userSpaceOnUse" x1="101.245" y1="58.8737" x2="101.245" y2="564.5237" gradientTransform="matrix(1 0 0 -1 0 636.3937)">
						<stop  offset="0" style="stop-color:#00A8C1"/>
						<stop  offset="1" style="stop-color:#00A8C1"/>
					</linearGradient>
					<path class="st1" d="M114.8,332.8c-0.6,0-1.1-0.2-1.6-0.6L78,302.6v44.2c0.6,0,1.1,0.2,1.6,0.6l35.1,29.5l9.8-9.8v-42.9
						l-7.9,7.9C116.1,332.6,115.5,332.8,114.8,332.8L114.8,332.8z"/>
				</g>
				<g>
					
						<linearGradient id="SVGID_00000029027075513008776490000012025660850330010303_" gradientUnits="userSpaceOnUse" x1="101.245" y1="58.8737" x2="101.245" y2="564.5237" gradientTransform="matrix(1 0 0 -1 0 636.3937)">
						<stop  offset="0" style="stop-color:#00A8C1"/>
						<stop  offset="1" style="stop-color:#00A8C1"/>
					</linearGradient>
					<path style="fill:url(#SVGID_00000029027075513008776490000012025660850330010303_);" d="M114.8,442.8c-0.6,0-1.1-0.2-1.6-0.6
						L78,412.6v44.2c0.6,0,1.1,0.2,1.6,0.6l35.1,29.5l9.8-9.8v-42.9l-7.9,7.9C116.1,442.6,115.5,442.8,114.8,442.8L114.8,442.8z"/>
				</g>
				<g>
					
						<linearGradient id="SVGID_00000183225566129223917840000009895890301074872475_" gradientUnits="userSpaceOnUse" x1="101.245" y1="58.8737" x2="101.245" y2="564.5237" gradientTransform="matrix(1 0 0 -1 0 636.3937)">
						<stop  offset="0" style="stop-color:#00A8C1"/>
						<stop  offset="1" style="stop-color:#00A8C1"/>
					</linearGradient>
					<path style="fill:url(#SVGID_00000183225566129223917840000009895890301074872475_);" d="M114.8,382.8c-0.6,0-1.1-0.2-1.6-0.6
						L78,352.6v54.2c0.6,0,1.1,0.2,1.6,0.6l35.1,29.5l9.8-9.8v-52.9l-7.9,7.9C116.1,382.6,115.5,382.8,114.8,382.8L114.8,382.8z"/>
				</g>
				<g>
					
						<linearGradient id="SVGID_00000116193715181958004690000012089578697934181540_" gradientUnits="userSpaceOnUse" x1="101.245" y1="58.8737" x2="101.245" y2="564.5237" gradientTransform="matrix(1 0 0 -1 0 636.3937)">
						<stop  offset="0" style="stop-color:#00A8C1"/>
						<stop  offset="1" style="stop-color:#00A8C1"/>
					</linearGradient>
					<path style="fill:url(#SVGID_00000116193715181958004690000012089578697934181540_);" d="M114.8,282.8c-0.6,0-1.1-0.2-1.6-0.6
						L78,252.6v44.2c0.6,0,1.1,0.2,1.6,0.6l35.1,29.5l9.8-9.8v-42.9l-7.9,7.9C116.1,282.6,115.5,282.8,114.8,282.8L114.8,282.8z"/>
				</g>
				<g>
					
						<linearGradient id="SVGID_00000130640960442719864050000012085645216014889397_" gradientUnits="userSpaceOnUse" x1="101.25" y1="58.8737" x2="101.25" y2="564.5237" gradientTransform="matrix(1 0 0 -1 0 636.3937)">
						<stop  offset="0" style="stop-color:#00A8C1"/>
						<stop  offset="1" style="stop-color:#00A8C1"/>
					</linearGradient>
					<path style="fill:url(#SVGID_00000130640960442719864050000012085645216014889397_);" d="M116.6,542.1
						c-0.5,0.5-1.1,0.7-1.8,0.7c-0.6,0-1.1-0.2-1.6-0.6L78,512.6V541c0,3.7,1.6,7.2,4.5,9.6l42,35.3v-51.7L116.6,542.1L116.6,542.1z
						"/>
				</g>
				<g>
					
						<linearGradient id="SVGID_00000037670496131809297800000004532416923981891986_" gradientUnits="userSpaceOnUse" x1="101.24" y1="58.8737" x2="101.24" y2="564.5237" gradientTransform="matrix(1 0 0 -1 0 636.3937)">
						<stop  offset="0" style="stop-color:#00A8C1"/>
						<stop  offset="1" style="stop-color:#00A8C1"/>
					</linearGradient>
					<path style="fill:url(#SVGID_00000037670496131809297800000004532416923981891986_);" d="M114.7,536.9l9.8-9.8v-42.9l-7.9,7.9
						c-0.5,0.5-1.1,0.7-1.8,0.7c-0.6,0-1.1-0.2-1.6-0.6L78,462.6v44.2c0.6,0,1.1,0.2,1.6,0.6L114.7,536.9L114.7,536.9z"/>
				</g>
			</g>
		</g>
	</g>
</g>
</svg>
